# This file uses centimeters as units for non-parametric coordinates.

mtllib BaseTower.mtl
g default
v 0.965926 -0.008828 -0.258819
v 0.707107 -0.008828 -0.707107
v 0.258819 -0.008828 -0.965926
v -0.258819 -0.008828 -0.965926
v -0.707107 -0.008828 -0.707107
v -0.965926 -0.008828 -0.258819
v -0.965926 -0.008828 0.258819
v -0.707107 -0.008828 0.707107
v -0.258819 -0.008828 0.965926
v 0.258819 -0.008828 0.965926
v 0.707107 -0.008828 0.707107
v 0.965926 -0.008828 0.258819
v 0.965926 0.486981 -0.258819
v 0.707107 0.486981 -0.707107
v 0.258819 0.486981 -0.965926
v -0.258819 0.486981 -0.965926
v -0.707107 0.486981 -0.707107
v -0.965926 0.486981 -0.258819
v -0.965926 0.486981 0.258819
v -0.707107 0.486981 0.707107
v -0.258819 0.486981 0.965926
v 0.258819 0.486981 0.965926
v 0.707107 0.486981 0.707107
v 0.965926 0.486981 0.258819
v 0.965926 0.982790 -0.258819
v 0.707107 0.982790 -0.707107
v 0.258819 0.982790 -0.965926
v -0.258819 0.982790 -0.965926
v -0.707107 0.982790 -0.707107
v -0.965926 0.982790 -0.258819
v -0.965926 0.982790 0.258819
v -0.707107 0.982790 0.707107
v -0.258819 0.982790 0.965926
v 0.258819 0.982790 0.965926
v 0.707107 0.982790 0.707107
v 0.965926 0.982790 0.258819
v 0.965926 1.478599 -0.258819
v 0.707107 1.478599 -0.707107
v 0.258819 1.478599 -0.965926
v -0.258819 1.478599 -0.965926
v -0.707107 1.478599 -0.707107
v -0.965926 1.478599 -0.258819
v -0.965926 1.478599 0.258819
v -0.707107 1.478599 0.707107
v -0.258819 1.478599 0.965926
v 0.258819 1.478599 0.965926
v 0.707107 1.478599 0.707107
v 0.965926 1.478599 0.258819
v 0.000000 1.478599 0.000000
v 0.258819 0.486981 -0.725178
v -0.258819 0.486981 -0.725178
v -0.258819 0.982790 -0.725178
v 0.258819 0.982790 -0.725178
v -0.725178 0.486981 -0.258819
v -0.725178 0.486981 0.258819
v -0.725178 0.982790 0.258819
v -0.725178 0.982790 -0.258819
v -0.258819 0.486981 0.725178
v 0.258819 0.486981 0.725178
v 0.258819 0.982790 0.725178
v -0.258819 0.982790 0.725178
v 0.725178 0.486981 0.258819
v 0.725178 0.486981 -0.258819
v 0.725178 0.982790 -0.258819
v 0.725178 0.982790 0.258819
v 0.258819 0.486981 -0.725178
v -0.258819 0.486981 -0.725178
v -0.258819 0.982790 -0.725178
v 0.258819 0.982790 -0.725178
v -0.725178 0.486981 -0.258819
v -0.725178 0.486981 0.258819
v -0.725178 0.982790 0.258819
v -0.725178 0.982790 -0.258819
v -0.258819 0.486981 0.725178
v 0.258819 0.486981 0.725178
v 0.258819 0.982790 0.725178
v -0.258819 0.982790 0.725178
v 0.725178 0.486981 0.258819
v 0.725178 0.486981 -0.258819
v 0.725178 0.982790 -0.258819
v 0.725178 0.982790 0.258819
vt 0.375000 0.312500
vt 0.395833 0.312500
vt 0.416667 0.312500
vt 0.437500 0.312500
vt 0.458333 0.312500
vt 0.479167 0.312500
vt 0.500000 0.312500
vt 0.520833 0.312500
vt 0.541667 0.312500
vt 0.562500 0.312500
vt 0.583333 0.312500
vt 0.604167 0.312500
vt 0.625000 0.312500
vt 0.375000 0.437813
vt 0.395833 0.437813
vt 0.416667 0.437813
vt 0.437500 0.437813
vt 0.458333 0.437813
vt 0.479167 0.437813
vt 0.500000 0.437813
vt 0.520833 0.437813
vt 0.541667 0.437813
vt 0.562500 0.437813
vt 0.583333 0.437813
vt 0.604167 0.437813
vt 0.625000 0.437813
vt 0.375000 0.563127
vt 0.395833 0.563127
vt 0.416667 0.563127
vt 0.437500 0.563127
vt 0.458333 0.563127
vt 0.479167 0.563127
vt 0.500000 0.563127
vt 0.520833 0.563127
vt 0.541667 0.563127
vt 0.562500 0.563127
vt 0.583333 0.563127
vt 0.604167 0.563127
vt 0.625000 0.563127
vt 0.375000 0.688440
vt 0.395833 0.688440
vt 0.416667 0.688440
vt 0.437500 0.688440
vt 0.458333 0.688440
vt 0.479167 0.688440
vt 0.500000 0.688440
vt 0.520833 0.688440
vt 0.541667 0.688440
vt 0.562500 0.688440
vt 0.583333 0.688440
vt 0.604167 0.688440
vt 0.625000 0.688440
vt 0.635316 0.765625
vt 0.578125 0.708434
vt 0.500000 0.687500
vt 0.421875 0.708434
vt 0.364684 0.765625
vt 0.343750 0.843750
vt 0.364684 0.921875
vt 0.421875 0.979066
vt 0.500000 1.000000
vt 0.578125 0.979066
vt 0.635316 0.921875
vt 0.656250 0.843750
vt 0.500000 0.837500
vt 0.416667 0.437813
vt 0.437500 0.437813
vt 0.437500 0.563127
vt 0.416667 0.563127
vt 0.479167 0.437813
vt 0.500000 0.437813
vt 0.500000 0.563127
vt 0.479167 0.563127
vt 0.541667 0.437813
vt 0.562500 0.437813
vt 0.562500 0.563127
vt 0.541667 0.563127
vt 0.604167 0.437813
vt 0.625000 0.437813
vt 0.625000 0.563127
vt 0.604167 0.563127
vt 0.416667 0.437813
vt 0.437500 0.437813
vt 0.437500 0.563127
vt 0.416667 0.563127
vt 0.479167 0.437813
vt 0.500000 0.437813
vt 0.500000 0.563127
vt 0.479167 0.563127
vt 0.541667 0.437813
vt 0.562500 0.437813
vt 0.562500 0.563127
vt 0.541667 0.563127
vt 0.604167 0.437813
vt 0.625000 0.437813
vt 0.625000 0.563127
vt 0.604167 0.563127
vn 0.866025 0.000000 -0.500000
vn 0.866025 0.000000 -0.500000
vn 0.866025 0.000000 -0.500000
vn 0.866025 0.000000 -0.500000
vn 0.500000 0.000000 -0.866025
vn 0.500000 0.000000 -0.866025
vn 0.500000 0.000000 -0.866026
vn 0.500000 0.000000 -0.866026
vn 0.000000 0.000000 -1.000000
vn 0.000000 0.000000 -1.000000
vn 0.000000 0.000000 -1.000000
vn 0.000000 0.000000 -1.000000
vn -0.500000 0.000000 -0.866025
vn -0.500000 0.000000 -0.866025
vn -0.500000 0.000000 -0.866025
vn -0.500000 0.000000 -0.866025
vn -0.866025 0.000000 -0.500000
vn -0.866025 0.000000 -0.500000
vn -0.866025 0.000000 -0.500000
vn -0.866025 0.000000 -0.500000
vn -1.000000 0.000000 -0.000000
vn -1.000000 0.000000 -0.000000
vn -1.000000 0.000000 -0.000000
vn -1.000000 0.000000 -0.000000
vn -0.866025 0.000000 0.500000
vn -0.866025 0.000000 0.500000
vn -0.866025 0.000000 0.500000
vn -0.866025 0.000000 0.500000
vn -0.500000 0.000000 0.866025
vn -0.500000 0.000000 0.866025
vn -0.500000 0.000000 0.866026
vn -0.500000 0.000000 0.866026
vn -0.000000 0.000000 1.000000
vn -0.000000 0.000000 1.000000
vn -0.000000 0.000000 1.000000
vn -0.000000 0.000000 1.000000
vn 0.500000 0.000000 0.866025
vn 0.500000 0.000000 0.866025
vn 0.500000 0.000000 0.866025
vn 0.500000 0.000000 0.866025
vn 0.866025 0.000000 0.500000
vn 0.866025 0.000000 0.500000
vn 0.866025 0.000000 0.500000
vn 0.866025 0.000000 0.500000
vn 1.000000 0.000000 0.000000
vn 1.000000 0.000000 0.000000
vn 1.000000 0.000000 0.000000
vn 1.000000 0.000000 0.000000
vn 0.866025 0.000000 -0.500000
vn 0.866025 0.000000 -0.500000
vn 0.500000 0.000000 -0.866025
vn 0.500000 0.000000 -0.866025
vn -0.000000 0.000000 -1.000000
vn -0.000000 0.000000 -1.000000
vn -0.000000 0.000000 -1.000000
vn -0.000000 0.000000 -1.000000
vn -0.500000 0.000000 -0.866025
vn -0.500000 0.000000 -0.866025
vn -0.866025 0.000000 -0.500000
vn -0.866025 0.000000 -0.500000
vn -1.000000 0.000000 0.000000
vn -1.000000 0.000000 0.000000
vn -1.000000 0.000000 0.000000
vn -1.000000 0.000000 0.000000
vn -0.866025 0.000000 0.500000
vn -0.866025 0.000000 0.500000
vn -0.500000 0.000000 0.866025
vn -0.500000 0.000000 0.866025
vn 0.000000 0.000000 1.000000
vn 0.000000 0.000000 1.000000
vn 0.000000 0.000000 1.000000
vn 0.000000 0.000000 1.000000
vn 0.500000 0.000000 0.866025
vn 0.500000 0.000000 0.866025
vn 0.866025 0.000000 0.500000
vn 0.866025 0.000000 0.500000
vn 1.000000 0.000000 -0.000000
vn 1.000000 0.000000 -0.000000
vn 1.000000 0.000000 -0.000000
vn 1.000000 0.000000 -0.000000
vn 0.866025 0.000000 -0.500000
vn 0.866025 0.000000 -0.500000
vn 0.500000 0.000000 -0.866025
vn 0.500000 0.000000 -0.866025
vn 0.000000 0.000000 -1.000000
vn 0.000000 0.000000 -1.000000
vn 0.000000 0.000000 -1.000000
vn 0.000000 0.000000 -1.000000
vn -0.500000 0.000000 -0.866025
vn -0.500000 0.000000 -0.866025
vn -0.866025 0.000000 -0.500000
vn -0.866025 0.000000 -0.500000
vn -1.000000 0.000000 -0.000000
vn -1.000000 0.000000 -0.000000
vn -1.000000 0.000000 -0.000000
vn -1.000000 0.000000 -0.000000
vn -0.866025 0.000000 0.500000
vn -0.866025 0.000000 0.500000
vn -0.500000 0.000000 0.866025
vn -0.500000 0.000000 0.866025
vn -0.000000 0.000000 1.000000
vn -0.000000 0.000000 1.000000
vn -0.000000 0.000000 1.000000
vn -0.000000 0.000000 1.000000
vn 0.500000 0.000000 0.866025
vn 0.500000 0.000000 0.866025
vn 0.866025 0.000000 0.500000
vn 0.866025 0.000000 0.500000
vn 1.000000 0.000000 0.000000
vn 1.000000 0.000000 0.000000
vn 1.000000 0.000000 0.000000
vn 1.000000 0.000000 0.000000
vn 0.000000 1.000000 0.000000
vn 0.000000 1.000000 0.000000
vn 0.000000 1.000000 0.000000
vn 0.000000 1.000000 0.000000
vn -0.000000 1.000000 0.000000
vn 0.000000 1.000000 -0.000000
vn 0.000000 1.000000 -0.000000
vn 0.000000 1.000000 0.000000
vn 0.000000 1.000000 0.000000
vn 0.000000 1.000000 0.000000
vn 0.000000 1.000000 -0.000000
vn -0.000000 1.000000 0.000000
vn -0.000000 1.000000 0.000000
vn 0.000000 1.000000 -0.000000
vn 0.000000 1.000000 -0.000000
vn 0.000000 1.000000 -0.000000
vn 0.000000 1.000000 -0.000000
vn 1.000000 0.000000 0.000000
vn 1.000000 0.000000 0.000000
vn 1.000000 0.000000 0.000000
vn 1.000000 0.000000 0.000000
vn 0.000000 -1.000000 -0.000000
vn 0.000000 -1.000000 -0.000000
vn 0.000000 -1.000000 -0.000000
vn 0.000000 -1.000000 -0.000000
vn -1.000000 0.000000 0.000000
vn -1.000000 0.000000 0.000000
vn -1.000000 0.000000 0.000000
vn -1.000000 0.000000 0.000000
vn 0.000000 1.000000 -0.000000
vn 0.000000 1.000000 -0.000000
vn 0.000000 1.000000 -0.000000
vn 0.000000 1.000000 -0.000000
vn -0.000000 0.000000 -1.000000
vn -0.000000 0.000000 -1.000000
vn -0.000000 0.000000 -1.000000
vn -0.000000 0.000000 -1.000000
vn 0.000000 -1.000000 0.000000
vn 0.000000 -1.000000 0.000000
vn 0.000000 -1.000000 0.000000
vn 0.000000 -1.000000 0.000000
vn 0.000000 0.000000 1.000000
vn 0.000000 0.000000 1.000000
vn 0.000000 0.000000 1.000000
vn 0.000000 0.000000 1.000000
vn -0.000000 1.000000 0.000000
vn -0.000000 1.000000 0.000000
vn -0.000000 1.000000 0.000000
vn -0.000000 1.000000 0.000000
vn -1.000000 0.000000 -0.000000
vn -1.000000 0.000000 -0.000000
vn -1.000000 0.000000 -0.000000
vn -1.000000 0.000000 -0.000000
vn -0.000000 -1.000000 0.000000
vn -0.000000 -1.000000 0.000000
vn -0.000000 -1.000000 0.000000
vn -0.000000 -1.000000 0.000000
vn 1.000000 0.000000 -0.000000
vn 1.000000 0.000000 -0.000000
vn 1.000000 0.000000 -0.000000
vn 1.000000 0.000000 -0.000000
vn -0.000000 1.000000 0.000000
vn -0.000000 1.000000 0.000000
vn -0.000000 1.000000 0.000000
vn -0.000000 1.000000 0.000000
vn 0.000000 0.000000 1.000000
vn 0.000000 0.000000 1.000000
vn 0.000000 0.000000 1.000000
vn 0.000000 0.000000 1.000000
vn 0.000000 -1.000000 0.000000
vn 0.000000 -1.000000 0.000000
vn 0.000000 -1.000000 0.000000
vn 0.000000 -1.000000 0.000000
vn -0.000000 0.000000 -1.000000
vn -0.000000 0.000000 -1.000000
vn -0.000000 0.000000 -1.000000
vn -0.000000 0.000000 -1.000000
vn 0.000000 0.000000 0.000000
vn 0.000000 0.000000 0.000000
vn 0.000000 0.000000 0.000000
vn 0.000000 0.000000 0.000000
vn 0.000000 0.000000 0.000000
vn 0.000000 0.000000 0.000000
vn 0.000000 0.000000 0.000000
vn 0.000000 0.000000 0.000000
vn 0.000000 0.000000 0.000000
vn 0.000000 0.000000 0.000000
vn 0.000000 0.000000 0.000000
vn 0.000000 0.000000 0.000000
vn 0.000000 0.000000 0.000000
vn 0.000000 0.000000 0.000000
vn 0.000000 0.000000 0.000000
vn 0.000000 0.000000 0.000000
vn 0.000000 0.000000 0.000000
vn 0.000000 0.000000 0.000000
vn 0.000000 0.000000 0.000000
vn 0.000000 0.000000 0.000000
vn 0.000000 0.000000 0.000000
vn 0.000000 0.000000 0.000000
vn 0.000000 0.000000 0.000000
vn 0.000000 0.000000 0.000000
vn 0.000000 0.000000 0.000000
vn 0.000000 0.000000 0.000000
vn 0.000000 0.000000 0.000000
vn 0.000000 0.000000 0.000000
vn 0.000000 0.000000 0.000000
vn 0.000000 0.000000 0.000000
vn 0.000000 0.000000 0.000000
vn 0.000000 0.000000 0.000000
vn 0.000000 0.000000 0.000000
vn 0.000000 0.000000 0.000000
vn 0.000000 0.000000 0.000000
vn 0.000000 0.000000 0.000000
vn 0.000000 0.000000 0.000000
vn 0.000000 0.000000 0.000000
vn 0.000000 0.000000 0.000000
vn 0.000000 0.000000 0.000000
vn 0.000000 0.000000 0.000000
vn 0.000000 0.000000 0.000000
vn 0.000000 0.000000 0.000000
vn 0.000000 0.000000 0.000000
vn 0.000000 0.000000 0.000000
vn 0.000000 0.000000 0.000000
vn 0.000000 0.000000 0.000000
vn 0.000000 0.000000 0.000000
vn 0.000000 0.000000 0.000000
vn 0.000000 0.000000 0.000000
vn 0.000000 0.000000 0.000000
vn 0.000000 0.000000 0.000000
vn 0.000000 0.000000 0.000000
vn 0.000000 0.000000 0.000000
vn 0.000000 0.000000 0.000000
vn 0.000000 0.000000 0.000000
vn 0.000000 0.000000 0.000000
vn 0.000000 0.000000 0.000000
vn 0.000000 0.000000 0.000000
vn 0.000000 0.000000 0.000000
vn 0.000000 0.000000 0.000000
vn 0.000000 0.000000 0.000000
vn 0.000000 0.000000 0.000000
vn 0.000000 0.000000 0.000000
s 1
g pCylinder1
usemtl initialShadingGroup
f 1/1/1 2/2/2 14/15/3 13/14/4
s 2
f 2/2/5 3/3/6 15/16/7 14/15/8
s off
f 3/3/9 4/4/10 16/17/11 15/16/12
s 3
f 4/4/13 5/5/14 17/18/15 16/17/16
s 4
f 5/5/17 6/6/18 18/19/19 17/18/20
s off
f 6/6/21 7/7/22 19/20/23 18/19/24
s 5
f 7/7/25 8/8/26 20/21/27 19/20/28
s 6
f 8/8/29 9/9/30 21/22/31 20/21/32
s off
f 9/9/33 10/10/34 22/23/35 21/22/36
s 7
f 10/10/37 11/11/38 23/24/39 22/23/40
s 8
f 11/11/41 12/12/42 24/25/43 23/24/44
s off
f 12/12/45 1/13/46 13/26/47 24/25/48
s 1
f 13/14/4 14/15/3 26/28/49 25/27/50
s 2
f 14/15/8 15/16/7 27/29/51 26/28/52
s off
usemtl lambert2SG
f 66/82/53 67/83/54 68/84/55 69/85/56
s 3
usemtl initialShadingGroup
f 16/17/16 17/18/15 29/31/57 28/30/58
s 4
f 17/18/20 18/19/19 30/32/59 29/31/60
s off
usemtl lambert2SG
f 70/86/61 71/87/62 72/88/63 73/89/64
s 5
usemtl initialShadingGroup
f 19/20/28 20/21/27 32/34/65 31/33/66
s 6
f 20/21/32 21/22/31 33/35/67 32/34/68
s off
usemtl lambert2SG
f 74/90/69 75/91/70 76/92/71 77/93/72
s 7
usemtl initialShadingGroup
f 22/23/40 23/24/39 35/37/73 34/36/74
s 8
f 23/24/44 24/25/43 36/38/75 35/37/76
s off
usemtl lambert2SG
f 78/94/77 79/95/78 80/96/79 81/97/80
s 1
usemtl initialShadingGroup
f 25/27/50 26/28/49 38/41/81 37/40/82
s 2
f 26/28/52 27/29/51 39/42/83 38/41/84
s off
f 27/29/85 28/30/86 40/43/87 39/42/88
s 3
f 28/30/58 29/31/57 41/44/89 40/43/90
s 4
f 29/31/60 30/32/59 42/45/91 41/44/92
s off
f 30/32/93 31/33/94 43/46/95 42/45/96
s 5
f 31/33/66 32/34/65 44/47/97 43/46/98
s 6
f 32/34/68 33/35/67 45/48/99 44/47/100
s off
f 33/35/101 34/36/102 46/49/103 45/48/104
s 7
f 34/36/74 35/37/73 47/50/105 46/49/106
s 8
f 35/37/76 36/38/75 48/51/107 47/50/108
s off
f 36/38/109 25/39/110 37/52/111 48/51/112
s 9
f 37/63/113 38/62/114 49/65/115
f 38/62/114 39/61/116 49/65/115
f 39/61/116 40/60/117 49/65/115
f 40/60/117 41/59/118 49/65/115
f 41/59/118 42/58/119 49/65/115
f 42/58/119 43/57/120 49/65/115
f 43/57/120 44/56/121 49/65/115
f 44/56/121 45/55/122 49/65/115
f 45/55/122 46/54/123 49/65/115
f 46/54/123 47/53/124 49/65/115
f 47/53/124 48/64/125 49/65/115
f 48/64/125 37/63/113 49/65/115
s off
f 15/16/126 16/17/127 51/67/128 50/66/129
f 16/17/130 28/30/131 52/68/132 51/67/133
f 28/30/134 27/29/135 53/69/136 52/68/137
f 27/29/138 15/16/139 50/66/140 53/69/141
f 18/19/142 19/20/143 55/71/144 54/70/145
f 19/20/146 31/33/147 56/72/148 55/71/149
f 31/33/150 30/32/151 57/73/152 56/72/153
f 30/32/154 18/19/155 54/70/156 57/73/157
f 21/22/158 22/23/159 59/75/160 58/74/161
f 22/23/162 34/36/163 60/76/164 59/75/165
f 34/36/166 33/35/167 61/77/168 60/76/169
f 33/35/170 21/22/171 58/74/172 61/77/173
f 24/25/174 13/26/175 63/79/176 62/78/177
f 13/26/178 25/39/179 64/80/180 63/79/181
f 25/39/182 36/38/183 65/81/184 64/80/185
f 36/38/186 24/25/187 62/78/188 65/81/189
f 50/66/190 51/67/191 67/83/192 66/82/193
f 51/67/194 52/68/195 68/84/196 67/83/197
f 52/68/198 53/69/199 69/85/200 68/84/201
f 53/69/202 50/66/203 66/82/204 69/85/205
f 54/70/206 55/71/207 71/87/208 70/86/209
f 55/71/210 56/72/211 72/88/212 71/87/213
f 56/72/214 57/73/215 73/89/216 72/88/217
f 57/73/218 54/70/219 70/86/220 73/89/221
f 58/74/222 59/75/223 75/91/224 74/90/225
f 59/75/226 60/76/227 76/92/228 75/91/229
f 60/76/230 61/77/231 77/93/232 76/92/233
f 61/77/234 58/74/235 74/90/236 77/93/237
f 62/78/238 63/79/239 79/95/240 78/94/241
f 63/79/242 64/80/243 80/96/244 79/95/245
f 64/80/246 65/81/247 81/97/248 80/96/249
f 65/81/250 62/78/251 78/94/252 81/97/253
