# This file uses centimeters as units for non-parametric coordinates.

mtllib MagicalTower.mtl
g default
v 0.965926 -0.003528 -0.258819
v 0.707107 -0.003528 -0.707107
v 0.258819 -0.003528 -0.965926
v -0.258819 -0.003528 -0.965926
v -0.707107 -0.003528 -0.707107
v -0.965926 -0.003528 -0.258819
v -0.965926 -0.003528 0.258819
v -0.707107 -0.003528 0.707107
v -0.258819 -0.003528 0.965926
v 0.258819 -0.003528 0.965926
v 0.707107 -0.003528 0.707107
v 0.965926 -0.003528 0.258819
v 0.965926 0.703590 -0.258819
v 0.707107 0.703590 -0.707107
v 0.258819 0.703590 -0.965926
v -0.258819 0.703590 -0.965926
v -0.707107 0.703590 -0.707107
v -0.965926 0.703590 -0.258819
v -0.965926 0.703590 0.258819
v -0.707107 0.703590 0.707107
v -0.258819 0.703590 0.965926
v 0.258819 0.703590 0.965926
v 0.707107 0.703590 0.707107
v 0.965926 0.703590 0.258819
v 0.965926 1.410708 -0.258819
v 0.707107 1.410708 -0.707107
v 0.258819 1.410708 -0.965926
v -0.258819 1.410708 -0.965926
v -0.707107 1.410708 -0.707107
v -0.965926 1.410708 -0.258819
v -0.965926 1.410708 0.258819
v -0.707107 1.410708 0.707107
v -0.258819 1.410708 0.965926
v 0.258819 1.410708 0.965926
v 0.707107 1.410708 0.707107
v 0.965926 1.410708 0.258819
v 0.965926 2.117826 -0.258819
v 0.707107 2.117826 -0.707107
v 0.258819 2.117826 -0.965926
v -0.258819 2.117826 -0.965926
v -0.707107 2.117826 -0.707107
v -0.965926 2.117826 -0.258819
v -0.965926 2.117826 0.258819
v -0.707107 2.117826 0.707107
v -0.258819 2.117826 0.965926
v 0.258819 2.117826 0.965926
v 0.707107 2.117826 0.707107
v 0.965926 2.117826 0.258819
v 0.965926 2.824944 -0.258819
v 0.707107 2.824944 -0.707107
v 0.258819 2.824944 -0.965926
v -0.258819 2.824944 -0.965926
v -0.707107 2.824944 -0.707107
v -0.965926 2.824944 -0.258819
v -0.965926 2.824944 0.258819
v -0.707107 2.824944 0.707107
v -0.258819 2.824944 0.965926
v 0.258819 2.824944 0.965926
v 0.707107 2.824944 0.707107
v 0.965926 2.824944 0.258819
v 0.965926 3.532061 -0.258819
v 0.707107 3.532061 -0.707107
v 0.258819 3.532061 -0.965926
v -0.258819 3.532061 -0.965926
v -0.707107 3.532061 -0.707107
v -0.965926 3.532061 -0.258819
v -0.965926 3.532061 0.258819
v -0.707107 3.532061 0.707107
v -0.258819 3.532061 0.965926
v 0.258819 3.532061 0.965926
v 0.707107 3.532061 0.707107
v 0.965926 3.532061 0.258819
v 1.448255 3.532061 -0.388059
v 1.060196 3.532061 -1.060196
v 0.388059 3.532061 -1.448255
v -0.388059 3.532061 -1.448255
v -1.060196 3.532061 -1.060196
v -1.448255 3.532061 -0.388059
v -1.448255 3.532061 0.388059
v -1.060196 3.532061 1.060196
v -0.388059 3.532061 1.448255
v 0.388059 3.532061 1.448255
v 1.060196 3.532061 1.060196
v 1.448255 3.532061 0.388059
v 0.000000 4.946950 0.000000
v 0.590238 0.703590 -0.504685
v 0.141951 0.703590 -0.763504
v 0.141951 1.410708 -0.763504
v 0.590238 1.410708 -0.504685
v -0.732189 0.703590 -0.258819
v -0.732189 0.703590 0.258819
v -0.732189 1.410708 0.258819
v -0.732189 1.410708 -0.258819
v 0.141951 0.703590 0.763504
v 0.590239 0.703590 0.504685
v 0.590239 1.410708 0.504685
v 0.141951 1.410708 0.763504
v -0.141951 1.410708 -0.763504
v -0.590239 1.410708 -0.504685
v -0.590239 2.117826 -0.504685
v -0.141951 2.117826 -0.763504
v -0.590238 1.410708 0.504685
v -0.141951 1.410708 0.763504
v -0.141951 2.117826 0.763504
v -0.590238 2.117826 0.504685
v 0.732189 1.410708 0.258819
v 0.732189 1.410708 -0.258819
v 0.732189 2.117826 -0.258819
v 0.732189 2.117826 0.258819
v 0.590238 2.117826 -0.504685
v 0.141951 2.117826 -0.763504
v 0.141951 2.824944 -0.763504
v 0.590238 2.824944 -0.504685
v -0.732189 2.117826 -0.258819
v -0.732189 2.117826 0.258819
v -0.732189 2.824944 0.258819
v -0.732189 2.824944 -0.258819
v 0.141951 2.117826 0.763504
v 0.590239 2.117826 0.504685
v 0.590239 2.824944 0.504685
v 0.141951 2.824944 0.763504
vt 0.375000 0.312500
vt 0.395833 0.312500
vt 0.416667 0.312500
vt 0.437500 0.312500
vt 0.458333 0.312500
vt 0.479167 0.312500
vt 0.500000 0.312500
vt 0.520833 0.312500
vt 0.541667 0.312500
vt 0.562500 0.312500
vt 0.583333 0.312500
vt 0.604167 0.312500
vt 0.625000 0.312500
vt 0.375000 0.387688
vt 0.395833 0.387688
vt 0.416667 0.387688
vt 0.437500 0.387688
vt 0.458333 0.387688
vt 0.479167 0.387688
vt 0.500000 0.387688
vt 0.520833 0.387688
vt 0.541667 0.387688
vt 0.562500 0.387688
vt 0.583333 0.387688
vt 0.604167 0.387688
vt 0.625000 0.387688
vt 0.375000 0.462876
vt 0.395833 0.462876
vt 0.416667 0.462876
vt 0.437500 0.462876
vt 0.458333 0.462876
vt 0.479167 0.462876
vt 0.500000 0.462876
vt 0.520833 0.462876
vt 0.541667 0.462876
vt 0.562500 0.462876
vt 0.583333 0.462876
vt 0.604167 0.462876
vt 0.625000 0.462876
vt 0.375000 0.538064
vt 0.395833 0.538064
vt 0.416667 0.538064
vt 0.437500 0.538064
vt 0.458333 0.538064
vt 0.479167 0.538064
vt 0.500000 0.538064
vt 0.520833 0.538064
vt 0.541667 0.538064
vt 0.562500 0.538064
vt 0.583333 0.538064
vt 0.604167 0.538064
vt 0.625000 0.538064
vt 0.375000 0.613252
vt 0.395833 0.613252
vt 0.416667 0.613252
vt 0.437500 0.613252
vt 0.458333 0.613252
vt 0.479167 0.613252
vt 0.500000 0.613252
vt 0.520833 0.613252
vt 0.541667 0.613252
vt 0.562500 0.613252
vt 0.583333 0.613252
vt 0.604167 0.613252
vt 0.625000 0.613252
vt 0.375000 0.688440
vt 0.395833 0.688440
vt 0.416667 0.688440
vt 0.437500 0.688440
vt 0.458333 0.688440
vt 0.479167 0.688440
vt 0.500000 0.688440
vt 0.520833 0.688440
vt 0.541667 0.688440
vt 0.562500 0.688440
vt 0.583333 0.688440
vt 0.604167 0.688440
vt 0.625000 0.688440
vt 0.000000 0.000000
vt 1.000000 0.000000
vt 1.076736 0.999785
vt -0.064926 0.999752
vt 0.000000 0.000000
vt 1.000000 0.000000
vt 1.064926 0.999752
vt -0.076736 0.999785
vt 0.000000 0.000000
vt 1.000000 0.000000
vt 1.064926 0.999752
vt -0.076736 0.999785
vt 0.000000 0.000000
vt 1.000000 0.000000
vt 1.064926 0.999752
vt -0.076736 0.999785
vt 0.000000 0.000000
vt 1.000000 0.000000
vt 1.064926 0.999752
vt -0.076736 0.999785
vt 0.000000 0.000000
vt 1.000000 0.000000
vt 1.064926 0.999752
vt -0.076736 0.999785
vt 0.000000 0.000000
vt 1.000000 0.000000
vt 1.064926 0.999752
vt -0.076736 0.999785
vt 0.000000 0.000000
vt 1.000000 0.000000
vt 1.064926 0.999752
vt -0.076736 0.999785
vt 0.000000 0.000000
vt 1.000000 0.000000
vt 1.064926 0.999752
vt -0.076736 0.999785
vt 0.000000 0.000000
vt 1.000000 0.000000
vt 1.064926 0.999752
vt -0.076736 0.999785
vt 0.000000 0.000000
vt 1.000000 0.000000
vt 1.064926 0.999752
vt -0.076736 0.999785
vt 0.000000 0.000000
vt 1.000000 0.000000
vt 1.064926 0.999752
vt -0.076736 0.999785
vt 0.251121 0.502102
vt 0.291869 0.500485
vt 0.500000 1.000000
vt 0.333489 0.500484
vt 0.375115 0.500484
vt 0.416741 0.500484
vt 0.458368 0.500484
vt 0.499994 0.500484
vt 0.541620 0.500484
vt 0.583247 0.500484
vt 0.624873 0.500484
vt 0.666499 0.500484
vt 0.708126 0.500484
vt 0.748879 0.502102
vt 0.395833 0.387688
vt 0.416667 0.387688
vt 0.416667 0.462876
vt 0.395833 0.462876
vt 0.479167 0.387688
vt 0.500000 0.387688
vt 0.500000 0.462876
vt 0.479167 0.462876
vt 0.562500 0.387688
vt 0.583333 0.387688
vt 0.583333 0.462876
vt 0.562500 0.462876
vt 0.437500 0.462876
vt 0.458333 0.462876
vt 0.458333 0.538064
vt 0.437500 0.538064
vt 0.520833 0.462876
vt 0.541667 0.462876
vt 0.541667 0.538064
vt 0.520833 0.538064
vt 0.604167 0.462876
vt 0.625000 0.462876
vt 0.625000 0.538064
vt 0.604167 0.538064
vt 0.395833 0.538064
vt 0.416667 0.538064
vt 0.416667 0.613252
vt 0.395833 0.613252
vt 0.479167 0.538064
vt 0.500000 0.538064
vt 0.500000 0.613252
vt 0.479167 0.613252
vt 0.562500 0.538064
vt 0.583333 0.538064
vt 0.583333 0.613252
vt 0.562500 0.613252
vn 0.866025 0.000000 -0.500000
vn 0.866025 0.000000 -0.500000
vn 0.866025 0.000000 -0.500000
vn 0.866025 0.000000 -0.500000
vn 0.500000 0.000000 -0.866025
vn 0.500000 0.000000 -0.866025
vn 0.500000 0.000000 -0.866025
vn 0.500000 0.000000 -0.866025
vn -0.000000 0.000000 -1.000000
vn -0.000000 0.000000 -1.000000
vn -0.000000 0.000000 -1.000000
vn -0.000000 0.000000 -1.000000
vn -0.500000 0.000000 -0.866026
vn -0.500000 0.000000 -0.866026
vn -0.500000 0.000000 -0.866026
vn -0.500000 0.000000 -0.866026
vn -0.866025 0.000000 -0.500000
vn -0.866025 0.000000 -0.500000
vn -0.866025 0.000000 -0.500000
vn -0.866025 0.000000 -0.500000
vn -1.000000 0.000000 0.000000
vn -1.000000 0.000000 0.000000
vn -1.000000 0.000000 0.000000
vn -1.000000 0.000000 0.000000
vn -0.866025 0.000000 0.500000
vn -0.866025 0.000000 0.500000
vn -0.866025 0.000000 0.500000
vn -0.866025 0.000000 0.500000
vn -0.500000 0.000000 0.866025
vn -0.500000 0.000000 0.866025
vn -0.500000 0.000000 0.866025
vn -0.500000 0.000000 0.866025
vn 0.000000 0.000000 1.000000
vn 0.000000 0.000000 1.000000
vn 0.000000 0.000000 1.000000
vn 0.000000 0.000000 1.000000
vn 0.500000 0.000000 0.866026
vn 0.500000 0.000000 0.866026
vn 0.500000 0.000000 0.866026
vn 0.500000 0.000000 0.866026
vn 0.866025 0.000000 0.500000
vn 0.866025 0.000000 0.500000
vn 0.866025 0.000000 0.500000
vn 0.866025 0.000000 0.500000
vn 1.000000 0.000000 -0.000000
vn 1.000000 0.000000 -0.000000
vn 1.000000 0.000000 -0.000000
vn 1.000000 0.000000 -0.000000
vn 0.866025 0.000000 -0.500000
vn 0.866025 0.000000 -0.500000
vn 0.500000 0.000000 -0.866025
vn 0.500000 0.000000 -0.866025
vn 0.500000 0.000000 -0.866025
vn 0.500000 0.000000 -0.866025
vn -0.000000 0.000000 -1.000000
vn -0.000000 0.000000 -1.000000
vn -0.500000 0.000000 -0.866026
vn -0.500000 0.000000 -0.866026
vn -0.866025 0.000000 -0.500000
vn -0.866025 0.000000 -0.500000
vn -1.000000 0.000000 0.000000
vn -1.000000 0.000000 0.000000
vn -1.000000 0.000000 0.000000
vn -1.000000 0.000000 0.000000
vn -0.866025 0.000000 0.500000
vn -0.866025 0.000000 0.500000
vn -0.500000 0.000000 0.866025
vn -0.500000 0.000000 0.866025
vn 0.000000 0.000000 1.000000
vn 0.000000 0.000000 1.000000
vn 0.500000 0.000000 0.866026
vn 0.500000 0.000000 0.866026
vn 0.500000 0.000000 0.866026
vn 0.500000 0.000000 0.866026
vn 0.866025 0.000000 0.500000
vn 0.866025 0.000000 0.500000
vn 1.000000 0.000000 -0.000000
vn 1.000000 0.000000 -0.000000
vn 0.866025 0.000000 -0.500000
vn 0.866025 0.000000 -0.500000
vn 0.500000 0.000000 -0.866025
vn 0.500000 0.000000 -0.866025
vn 0.500000 0.000000 -0.866025
vn 0.500000 0.000000 -0.866025
vn -0.000000 0.000000 -1.000000
vn -0.000000 0.000000 -1.000000
vn -0.500000 0.000000 -0.866025
vn -0.500000 0.000000 -0.866025
vn -0.500000 0.000000 -0.866025
vn -0.500000 0.000000 -0.866025
vn -0.866025 0.000000 -0.500000
vn -0.866025 0.000000 -0.500000
vn -1.000000 0.000000 0.000000
vn -1.000000 0.000000 0.000000
vn -1.000000 0.000000 0.000000
vn -1.000000 0.000000 0.000000
vn -0.866025 0.000000 0.500000
vn -0.866025 0.000000 0.500000
vn -0.500000 0.000000 0.866025
vn -0.500000 0.000000 0.866025
vn -0.500000 0.000000 0.866025
vn -0.500000 0.000000 0.866025
vn 0.000000 0.000000 1.000000
vn 0.000000 0.000000 1.000000
vn 0.500000 0.000000 0.866026
vn 0.500000 0.000000 0.866026
vn 0.500000 0.000000 0.866026
vn 0.500000 0.000000 0.866026
vn 0.866025 0.000000 0.500000
vn 0.866025 0.000000 0.500000
vn 1.000000 0.000000 -0.000000
vn 1.000000 0.000000 -0.000000
vn 1.000000 0.000000 -0.000000
vn 1.000000 0.000000 -0.000000
vn 0.866025 0.000000 -0.500000
vn 0.866025 0.000000 -0.500000
vn 0.500000 0.000000 -0.866025
vn 0.500000 0.000000 -0.866025
vn 0.500000 0.000000 -0.866025
vn 0.500000 0.000000 -0.866025
vn -0.000000 0.000000 -1.000000
vn -0.000000 0.000000 -1.000000
vn -0.500000 0.000000 -0.866026
vn -0.500000 0.000000 -0.866026
vn -0.500000 0.000000 -0.866026
vn -0.500000 0.000000 -0.866026
vn -0.866025 0.000000 -0.500000
vn -0.866025 0.000000 -0.500000
vn -1.000000 0.000000 0.000000
vn -1.000000 0.000000 0.000000
vn -1.000000 0.000000 0.000000
vn -1.000000 0.000000 0.000000
vn -0.866025 0.000000 0.500000
vn -0.866025 0.000000 0.500000
vn -0.500000 0.000000 0.866025
vn -0.500000 0.000000 0.866025
vn -0.500000 0.000000 0.866025
vn -0.500000 0.000000 0.866025
vn 0.000000 0.000000 1.000000
vn 0.000000 0.000000 1.000000
vn 0.500000 0.000000 0.866025
vn 0.500000 0.000000 0.866025
vn 0.500000 0.000000 0.866025
vn 0.500000 0.000000 0.866025
vn 0.866025 0.000000 0.500000
vn 0.866025 0.000000 0.500000
vn 1.000000 0.000000 -0.000000
vn 1.000000 0.000000 -0.000000
vn 1.000000 0.000000 -0.000000
vn 1.000000 0.000000 -0.000000
vn 0.866025 0.000000 -0.500000
vn 0.866025 0.000000 -0.500000
vn 0.500000 0.000000 -0.866025
vn 0.500000 0.000000 -0.866025
vn 0.500000 0.000000 -0.866025
vn 0.500000 0.000000 -0.866025
vn -0.000000 0.000000 -1.000000
vn -0.000000 0.000000 -1.000000
vn -0.500000 0.000000 -0.866025
vn -0.500000 0.000000 -0.866025
vn -0.866025 0.000000 -0.500000
vn -0.866025 0.000000 -0.500000
vn -1.000000 0.000000 0.000000
vn -1.000000 0.000000 0.000000
vn -1.000000 0.000000 0.000000
vn -1.000000 0.000000 0.000000
vn -0.866025 0.000000 0.500000
vn -0.866025 0.000000 0.500000
vn -0.500000 0.000000 0.866025
vn -0.500000 0.000000 0.866025
vn 0.000000 0.000000 1.000000
vn 0.000000 0.000000 1.000000
vn 0.500000 0.000000 0.866025
vn 0.500000 0.000000 0.866025
vn 0.500000 0.000000 0.866025
vn 0.500000 0.000000 0.866025
vn 0.866025 0.000000 0.500000
vn 0.866025 0.000000 0.500000
vn 1.000000 0.000000 -0.000000
vn 1.000000 0.000000 -0.000000
vn -0.000000 -1.000000 0.000000
vn -0.000000 -1.000000 0.000000
vn -0.000000 -1.000000 0.000000
vn -0.000000 -1.000000 0.000000
vn -0.000000 -1.000000 0.000000
vn -0.000000 -1.000000 0.000000
vn -0.000000 -1.000000 0.000000
vn -0.000000 -1.000000 0.000000
vn -0.000000 -1.000000 0.000000
vn -0.000000 -1.000000 0.000000
vn -0.000000 -1.000000 0.000000
vn -0.000000 -1.000000 0.000000
vn 0.000000 -1.000000 -0.000000
vn 0.000000 -1.000000 -0.000000
vn 0.000000 -1.000000 -0.000000
vn 0.000000 -1.000000 -0.000000
vn 0.000000 -1.000000 -0.000000
vn 0.000000 -1.000000 -0.000000
vn 0.000000 -1.000000 -0.000000
vn 0.000000 -1.000000 -0.000000
vn 0.000000 -1.000000 -0.000000
vn 0.000000 -1.000000 -0.000000
vn 0.000000 -1.000000 -0.000000
vn 0.000000 -1.000000 -0.000000
vn 0.605195 0.715299 -0.349409
vn 0.605195 0.715299 -0.349409
vn 0.605195 0.715299 -0.349409
vn 0.349410 0.715299 -0.605195
vn 0.349410 0.715299 -0.605195
vn 0.349410 0.715299 -0.605195
vn -0.000000 0.715299 -0.698819
vn -0.000000 0.715299 -0.698819
vn -0.000000 0.715299 -0.698819
vn -0.349410 0.715299 -0.605195
vn -0.349410 0.715299 -0.605195
vn -0.349410 0.715299 -0.605195
vn -0.605195 0.715299 -0.349409
vn -0.605195 0.715299 -0.349409
vn -0.605195 0.715299 -0.349409
vn -0.698819 0.715299 -0.000000
vn -0.698819 0.715299 -0.000000
vn -0.698819 0.715299 -0.000000
vn -0.605195 0.715299 0.349409
vn -0.605195 0.715299 0.349409
vn -0.605195 0.715299 0.349409
vn -0.349410 0.715299 0.605195
vn -0.349410 0.715299 0.605195
vn -0.349410 0.715299 0.605195
vn 0.000000 0.715299 0.698819
vn 0.000000 0.715299 0.698819
vn 0.000000 0.715299 0.698819
vn 0.349410 0.715299 0.605195
vn 0.349410 0.715299 0.605195
vn 0.349410 0.715299 0.605195
vn 0.605195 0.715299 0.349409
vn 0.605195 0.715299 0.349409
vn 0.605195 0.715299 0.349409
vn 0.698819 0.715299 0.000000
vn 0.698819 0.715299 0.000000
vn 0.698819 0.715299 0.000000
vn 0.000000 1.000000 0.000000
vn 0.000000 1.000000 0.000000
vn 0.000000 1.000000 0.000000
vn 0.000000 1.000000 0.000000
vn 0.866025 0.000000 0.500000
vn 0.866025 0.000000 0.500000
vn 0.866025 0.000000 0.500000
vn 0.866025 0.000000 0.500000
vn 0.000000 -1.000000 -0.000000
vn 0.000000 -1.000000 -0.000000
vn 0.000000 -1.000000 -0.000000
vn 0.000000 -1.000000 -0.000000
vn -0.866025 0.000000 -0.500000
vn -0.866025 0.000000 -0.500000
vn -0.866025 0.000000 -0.500000
vn -0.866025 0.000000 -0.500000
vn 0.000000 1.000000 0.000000
vn 0.000000 1.000000 0.000000
vn 0.000000 1.000000 0.000000
vn 0.000000 1.000000 0.000000
vn -0.000000 0.000000 -1.000000
vn -0.000000 0.000000 -1.000000
vn -0.000000 0.000000 -1.000000
vn -0.000000 0.000000 -1.000000
vn 0.000000 -1.000000 0.000000
vn 0.000000 -1.000000 0.000000
vn 0.000000 -1.000000 0.000000
vn 0.000000 -1.000000 0.000000
vn 0.000000 0.000000 1.000000
vn 0.000000 0.000000 1.000000
vn 0.000000 0.000000 1.000000
vn 0.000000 0.000000 1.000000
vn -0.000000 1.000000 0.000000
vn -0.000000 1.000000 0.000000
vn -0.000000 1.000000 0.000000
vn -0.000000 1.000000 0.000000
vn -0.866026 0.000000 0.500000
vn -0.866026 0.000000 0.500000
vn -0.866026 0.000000 0.500000
vn -0.866026 0.000000 0.500000
vn 0.000000 -1.000000 -0.000000
vn 0.000000 -1.000000 -0.000000
vn 0.000000 -1.000000 -0.000000
vn 0.000000 -1.000000 -0.000000
vn 0.866025 0.000000 -0.500000
vn 0.866025 0.000000 -0.500000
vn 0.866025 0.000000 -0.500000
vn 0.866025 0.000000 -0.500000
vn 0.000000 1.000000 -0.000000
vn 0.000000 1.000000 -0.000000
vn 0.000000 1.000000 -0.000000
vn 0.000000 1.000000 -0.000000
vn 0.866026 0.000000 -0.500000
vn 0.866026 0.000000 -0.500000
vn 0.866026 0.000000 -0.500000
vn 0.866026 0.000000 -0.500000
vn 0.000000 -1.000000 0.000000
vn 0.000000 -1.000000 0.000000
vn 0.000000 -1.000000 0.000000
vn 0.000000 -1.000000 0.000000
vn -0.866025 0.000000 0.500000
vn -0.866025 0.000000 0.500000
vn -0.866025 0.000000 0.500000
vn -0.866025 0.000000 0.500000
vn 0.000000 1.000000 -0.000000
vn 0.000000 1.000000 -0.000000
vn 0.000000 1.000000 -0.000000
vn 0.000000 1.000000 -0.000000
vn -0.866025 0.000000 -0.500000
vn -0.866025 0.000000 -0.500000
vn -0.866025 0.000000 -0.500000
vn -0.866025 0.000000 -0.500000
vn 0.000000 -1.000000 0.000000
vn 0.000000 -1.000000 0.000000
vn 0.000000 -1.000000 0.000000
vn 0.000000 -1.000000 0.000000
vn 0.866025 0.000000 0.500000
vn 0.866025 0.000000 0.500000
vn 0.866025 0.000000 0.500000
vn 0.866025 0.000000 0.500000
vn 0.000000 1.000000 0.000000
vn 0.000000 1.000000 0.000000
vn 0.000000 1.000000 0.000000
vn 0.000000 1.000000 0.000000
vn 0.000000 0.000000 1.000000
vn 0.000000 0.000000 1.000000
vn 0.000000 0.000000 1.000000
vn 0.000000 0.000000 1.000000
vn 0.000000 -1.000000 0.000000
vn 0.000000 -1.000000 0.000000
vn 0.000000 -1.000000 0.000000
vn 0.000000 -1.000000 0.000000
vn -0.000000 0.000000 -1.000000
vn -0.000000 0.000000 -1.000000
vn -0.000000 0.000000 -1.000000
vn -0.000000 0.000000 -1.000000
vn 0.000000 1.000000 -0.000000
vn 0.000000 1.000000 -0.000000
vn 0.000000 1.000000 -0.000000
vn 0.000000 1.000000 -0.000000
vn 0.866025 0.000000 0.500000
vn 0.866025 0.000000 0.500000
vn 0.866025 0.000000 0.500000
vn 0.866025 0.000000 0.500000
vn -0.000000 -1.000000 0.000000
vn -0.000000 -1.000000 0.000000
vn -0.000000 -1.000000 0.000000
vn -0.000000 -1.000000 0.000000
vn -0.866025 0.000000 -0.500000
vn -0.866025 0.000000 -0.500000
vn -0.866025 0.000000 -0.500000
vn -0.866025 0.000000 -0.500000
vn 0.000000 1.000000 0.000000
vn 0.000000 1.000000 0.000000
vn 0.000000 1.000000 0.000000
vn 0.000000 1.000000 0.000000
vn -0.000000 0.000000 -1.000000
vn -0.000000 0.000000 -1.000000
vn -0.000000 0.000000 -1.000000
vn -0.000000 0.000000 -1.000000
vn 0.000000 -1.000000 0.000000
vn 0.000000 -1.000000 0.000000
vn 0.000000 -1.000000 0.000000
vn 0.000000 -1.000000 0.000000
vn 0.000000 0.000000 1.000000
vn 0.000000 0.000000 1.000000
vn 0.000000 0.000000 1.000000
vn 0.000000 0.000000 1.000000
vn 0.000000 1.000000 0.000000
vn 0.000000 1.000000 0.000000
vn 0.000000 1.000000 0.000000
vn 0.000000 1.000000 0.000000
vn -0.866026 0.000000 0.500000
vn -0.866026 0.000000 0.500000
vn -0.866026 0.000000 0.500000
vn -0.866026 0.000000 0.500000
vn -0.000000 -1.000000 0.000000
vn -0.000000 -1.000000 0.000000
vn -0.000000 -1.000000 0.000000
vn -0.000000 -1.000000 0.000000
vn 0.866025 0.000000 -0.500000
vn 0.866025 0.000000 -0.500000
vn 0.866025 0.000000 -0.500000
vn 0.866025 0.000000 -0.500000
s 1
g pCylinder2
usemtl lambert2SG
f 1/1/1 2/2/2 14/15/3 13/14/4
s off
f 2/2/5 3/3/6 15/16/7 14/15/8
s 2
f 3/3/9 4/4/10 16/17/11 15/16/12
s 3
f 4/4/13 5/5/14 17/18/15 16/17/16
s 4
f 5/5/17 6/6/18 18/19/19 17/18/20
s off
f 6/6/21 7/7/22 19/20/23 18/19/24
s 5
f 7/7/25 8/8/26 20/21/27 19/20/28
s 6
f 8/8/29 9/9/30 21/22/31 20/21/32
s 7
f 9/9/33 10/10/34 22/23/35 21/22/36
s off
f 10/10/37 11/11/38 23/24/39 22/23/40
s 8
f 11/11/41 12/12/42 24/25/43 23/24/44
s 9
f 12/12/45 1/13/46 13/26/47 24/25/48
s 1
f 13/14/4 14/15/3 26/28/49 25/27/50
s off
usemtl lambert3SG
f 86/141/51 87/142/52 88/143/53 89/144/54
s 2
usemtl lambert2SG
f 15/16/12 16/17/11 28/30/55 27/29/56
s 3
f 16/17/16 17/18/15 29/31/57 28/30/58
s 4
f 17/18/20 18/19/19 30/32/59 29/31/60
s off
usemtl lambert3SG
f 90/145/61 91/146/62 92/147/63 93/148/64
s 5
usemtl lambert2SG
f 19/20/28 20/21/27 32/34/65 31/33/66
s 6
f 20/21/32 21/22/31 33/35/67 32/34/68
s 7
f 21/22/36 22/23/35 34/36/69 33/35/70
s off
usemtl lambert3SG
f 94/149/71 95/150/72 96/151/73 97/152/74
s 8
usemtl lambert2SG
f 23/24/44 24/25/43 36/38/75 35/37/76
s 9
f 24/25/48 13/26/47 25/39/77 36/38/78
s 1
f 25/27/50 26/28/49 38/41/79 37/40/80
s off
f 26/28/81 27/29/82 39/42/83 38/41/84
s 2
f 27/29/56 28/30/55 40/43/85 39/42/86
s off
usemtl lambert3SG
f 98/153/87 99/154/88 100/155/89 101/156/90
s 4
usemtl lambert2SG
f 29/31/60 30/32/59 42/45/91 41/44/92
s off
f 30/32/93 31/33/94 43/46/95 42/45/96
s 5
f 31/33/66 32/34/65 44/47/97 43/46/98
s off
usemtl lambert3SG
f 102/157/99 103/158/100 104/159/101 105/160/102
s 7
usemtl lambert2SG
f 33/35/70 34/36/69 46/49/103 45/48/104
s off
f 34/36/105 35/37/106 47/50/107 46/49/108
s 8
f 35/37/76 36/38/75 48/51/109 47/50/110
s off
usemtl lambert3SG
f 106/161/111 107/162/112 108/163/113 109/164/114
s 1
usemtl lambert2SG
f 37/40/80 38/41/79 50/54/115 49/53/116
s off
usemtl lambert3SG
f 110/165/117 111/166/118 112/167/119 113/168/120
s 2
usemtl lambert2SG
f 39/42/86 40/43/85 52/56/121 51/55/122
s 10
f 40/43/123 41/44/124 53/57/125 52/56/126
s 4
f 41/44/92 42/45/91 54/58/127 53/57/128
s off
usemtl lambert3SG
f 114/169/129 115/170/130 116/171/131 117/172/132
s 5
usemtl lambert2SG
f 43/46/98 44/47/97 56/60/133 55/59/134
s 11
f 44/47/135 45/48/136 57/61/137 56/60/138
s 7
f 45/48/104 46/49/103 58/62/139 57/61/140
s off
usemtl lambert3SG
f 118/173/141 119/174/142 120/175/143 121/176/144
s 8
usemtl lambert2SG
f 47/50/110 48/51/109 60/64/145 59/63/146
s 12
f 48/51/147 37/52/148 49/65/149 60/64/150
s 1
f 49/53/116 50/54/115 62/67/151 61/66/152
s off
f 50/54/153 51/55/154 63/68/155 62/67/156
s 2
f 51/55/122 52/56/121 64/69/157 63/68/158
s 10
f 52/56/126 53/57/125 65/70/159 64/69/160
s 4
f 53/57/128 54/58/127 66/71/161 65/70/162
s off
f 54/58/163 55/59/164 67/72/165 66/71/166
s 5
f 55/59/134 56/60/133 68/73/167 67/72/168
s 11
f 56/60/138 57/61/137 69/74/169 68/73/170
s 7
f 57/61/140 58/62/139 70/75/171 69/74/172
s off
f 58/62/173 59/63/174 71/76/175 70/75/176
s 8
f 59/63/146 60/64/145 72/77/177 71/76/178
s 12
f 60/64/150 49/65/149 61/78/179 72/77/180
s 13
f 61/79/181 62/80/182 74/81/183 73/82/184
f 62/83/182 63/84/185 75/85/186 74/86/183
f 63/87/185 64/88/187 76/89/188 75/90/186
f 64/91/187 65/92/189 77/93/190 76/94/188
f 65/95/189 66/96/191 78/97/192 77/98/190
f 66/99/191 67/100/193 79/101/194 78/102/192
f 67/103/193 68/104/195 80/105/196 79/106/194
f 68/107/195 69/108/197 81/109/198 80/110/196
f 69/111/197 70/112/199 82/113/200 81/114/198
f 70/115/199 71/116/201 83/117/202 82/118/200
f 71/119/201 72/120/203 84/121/204 83/122/202
f 72/123/203 61/124/181 73/125/184 84/126/204
s off
f 73/127/205 74/128/206 85/129/207
f 74/128/208 75/130/209 85/129/210
f 75/130/211 76/131/212 85/129/213
f 76/131/214 77/132/215 85/129/216
f 77/132/217 78/133/218 85/129/219
f 78/133/220 79/134/221 85/129/222
f 79/134/223 80/135/224 85/129/225
f 80/135/226 81/136/227 85/129/228
f 81/136/229 82/137/230 85/129/231
f 82/137/232 83/138/233 85/129/234
f 83/138/235 84/139/236 85/129/237
f 84/139/238 73/140/239 85/129/240
f 14/15/241 15/16/242 87/142/243 86/141/244
f 15/16/245 27/29/246 88/143/247 87/142/248
f 27/29/249 26/28/250 89/144/251 88/143/252
f 26/28/253 14/15/254 86/141/255 89/144/256
f 18/19/257 19/20/258 91/146/259 90/145/260
f 19/20/261 31/33/262 92/147/263 91/146/264
f 31/33/265 30/32/266 93/148/267 92/147/268
f 30/32/269 18/19/270 90/145/271 93/148/272
f 22/23/273 23/24/274 95/150/275 94/149/276
f 23/24/277 35/37/278 96/151/279 95/150/280
f 35/37/281 34/36/282 97/152/283 96/151/284
f 34/36/285 22/23/286 94/149/287 97/152/288
f 28/30/289 29/31/290 99/154/291 98/153/292
f 29/31/293 41/44/294 100/155/295 99/154/296
f 41/44/297 40/43/298 101/156/299 100/155/300
f 40/43/301 28/30/302 98/153/303 101/156/304
f 32/34/305 33/35/306 103/158/307 102/157/308
f 33/35/309 45/48/310 104/159/311 103/158/312
f 45/48/313 44/47/314 105/160/315 104/159/316
f 44/47/317 32/34/318 102/157/319 105/160/320
f 36/38/321 25/39/322 107/162/323 106/161/324
f 25/39/325 37/52/326 108/163/327 107/162/328
f 37/52/329 48/51/330 109/164/331 108/163/332
f 48/51/333 36/38/334 106/161/335 109/164/336
f 38/41/337 39/42/338 111/166/339 110/165/340
f 39/42/341 51/55/342 112/167/343 111/166/344
f 51/55/345 50/54/346 113/168/347 112/167/348
f 50/54/349 38/41/350 110/165/351 113/168/352
f 42/45/353 43/46/354 115/170/355 114/169/356
f 43/46/357 55/59/358 116/171/359 115/170/360
f 55/59/361 54/58/362 117/172/363 116/171/364
f 54/58/365 42/45/366 114/169/367 117/172/368
f 46/49/369 47/50/370 119/174/371 118/173/372
f 47/50/373 59/63/374 120/175/375 119/174/376
f 59/63/377 58/62/378 121/176/379 120/175/380
f 58/62/381 46/49/382 118/173/383 121/176/384
